HIERARCHY
ROOT SpineBase
{
  OFFSET 0.000000 0.000000 0.000000
  CHANNELS 6 Xposition Yposition Zposition Zrotation Xrotation Yrotation
  JOINT SpineMid
  {
    OFFSET 0.000000 31.414314 -0.000000
    CHANNELS 3 Zrotation Xrotation Yrotation
    JOINT SpineShoulder
    {
      OFFSET 0.115912 23.267651 -0.707092
      CHANNELS 3 Zrotation Xrotation Yrotation
      JOINT Neck
      {
        OFFSET 0.118310 7.682261 -0.551427
        CHANNELS 3 Zrotation Xrotation Yrotation
        JOINT Head
        {
          OFFSET 6.633538 13.468099 0.622288
          CHANNELS 3 Zrotation Xrotation Yrotation
          End Site
          {
            OFFSET 0 0 0
          }
        }
      }
      JOINT ShoulderLeft
      {
        OFFSET -9.642708 -1.984603 -12.988517
        CHANNELS 3 Zrotation Xrotation Yrotation
        JOINT ElbowLeft
        {
          OFFSET -6.348678 -25.442442 -5.293045
          CHANNELS 3 Zrotation Xrotation Yrotation
          JOINT WristLeft
          {
            OFFSET 1.153993 -25.472143 -5.929315
            CHANNELS 3 Zrotation Xrotation Yrotation
            JOINT HandLeft
            {
              OFFSET -0.123701 -5.469197 -0.879866
              CHANNELS 3 Zrotation Xrotation Yrotation
              JOINT HandTipLeft
              {
                OFFSET 1.172953 -5.743734 -1.321118
                CHANNELS 3 Zrotation Xrotation Yrotation
                End Site
                {
                  OFFSET 0 0 0
                }
              }
              JOINT ThumbLeft
              {
                OFFSET -0.897602 -0.152833 -3.654371
                CHANNELS 3 Zrotation Xrotation Yrotation
                End Site
                {
                  OFFSET 0 0 0
                }
              }
            }
          }
        }
      }
      JOINT ShoulderRight
      {
        OFFSET 11.496772 -4.660067 13.828614
        CHANNELS 3 Zrotation Xrotation Yrotation
        JOINT ElbowRight
        {
          OFFSET 0.837725 -31.059663 5.086549
          CHANNELS 3 Zrotation Xrotation Yrotation
          JOINT WristRight
          {
            OFFSET 3.060169 -23.162192 -2.124296
            CHANNELS 3 Zrotation Xrotation Yrotation
            JOINT HandRight
            {
              OFFSET 0.853302 -6.428447 -1.715479
              CHANNELS 3 Zrotation Xrotation Yrotation
              JOINT HandTipRight
              {
                OFFSET -0.558064 -4.340651 -0.890895
                CHANNELS 3 Zrotation Xrotation Yrotation
                End Site
                {
                  OFFSET 0 0 0
                }
              }
              JOINT ThumbRight
              {
                OFFSET -3.327493 -2.362202 -0.466507
                CHANNELS 3 Zrotation Xrotation Yrotation
                End Site
                {
                  OFFSET 0 0 0
                }
              }
            }
          }
        }
      }
    }
  }
  JOINT HipLeft
  {
    OFFSET -3.613894 1.936090 -8.348879
    CHANNELS 3 Zrotation Xrotation Yrotation
    JOINT KneeLeft
    {
      OFFSET -11.367887 -35.841021 -2.509974
      CHANNELS 3 Zrotation Xrotation Yrotation
      JOINT AnkleLeft
      {
        OFFSET -7.783991 -35.825265 6.186378
        CHANNELS 3 Zrotation Xrotation Yrotation
        JOINT FootLeft
        {
          OFFSET 5.999017 -3.455358 -7.280880
          CHANNELS 3 Zrotation Xrotation Yrotation
          End Site
          {
            OFFSET 0 0 0
          }
        }
      }
    }
  }
  JOINT HipRight
  {
    OFFSET 5.451008 -0.240471 1.426872
    CHANNELS 3 Zrotation Xrotation Yrotation
    JOINT KneeRight
    {
      OFFSET -3.080813 -36.477330 2.375763
      CHANNELS 3 Zrotation Xrotation Yrotation
      JOINT AnkleRight
      {
        OFFSET -3.152473 -37.225163 7.135797
        CHANNELS 3 Zrotation Xrotation Yrotation
        JOINT FootRight
        {
          OFFSET 1.261694 -5.443282 -6.489923
          CHANNELS 3 Zrotation Xrotation Yrotation
          End Site
          {
            OFFSET 0 0 0
          }
        }
      }
    }
  }
}
MOTION
Frames: 5
Frame Time: 0.033333
-90.759762 79.072478 311.140250 -3.687029 -4.651960 -63.233373 0.021725 -0.330774 62.993389 -0.098327 -0.010242 -0.116432 -11.076021 16.553012 -2.066446 0.000000 0.000000 0.000000 6.902137 8.446162 -1.771796 0.517225 -10.724302 0.764266 8.685742 -8.409064 -0.174648 -6.703382 14.069566 0.292269 0.000000 0.000000 0.000000 0.000000 0.000000 0.000000 5.682949 -5.413392 0.042223 35.409072 12.987915 -10.184167 54.560400 29.628744 -39.967380 -3.251434 -8.644335 -5.731595 0.000000 0.000000 0.000000 0.000000 0.000000 0.000000 -1.335449 8.728567 62.655361 -1.566056 -5.884141 1.986493 -8.226876 -4.330174 -6.952214 0.000000 0.000000 0.000000 0.520146 9.866273 63.203628 -1.357726 0.205064 0.400907 0.732729 -6.877086 -8.462353 0.000000 0.000000 0.000000
-90.590284 79.037471 311.132224 -3.695298 -4.668689 -63.271547 0.005437 -0.320042 63.031014 -0.090562 -0.001208 -0.116305 -11.235946 16.629462 -2.062518 0.000000 0.000000 0.000000 6.713087 8.384401 -1.696163 0.338691 -10.667473 0.754307 9.250132 -7.674263 -0.413482 -10.897764 4.351013 0.577041 0.000000 0.000000 0.000000 0.000000 0.000000 0.000000 5.596331 -5.450257 0.028566 34.250868 13.100321 -9.840377 55.846684 25.658130 -37.590153 -1.328149 -5.421017 -6.218658 0.000000 0.000000 0.000000 0.000000 0.000000 0.000000 -1.176130 8.540939 62.760514 -1.715983 -5.638312 1.845553 -4.779965 -1.534489 -8.163150 0.000000 0.000000 0.000000 0.339941 9.904300 63.246206 -1.438885 -0.078113 0.411062 2.227402 -7.837815 -10.418087 0.000000 0.000000 0.000000
-90.426083 79.010137 311.122635 -3.692263 -4.680291 -63.325379 -0.008392 -0.305415 63.085192 -0.081637 0.006766 -0.115567 -11.419783 16.698264 -2.056741 0.000000 0.000000 0.000000 6.529558 8.312014 -1.626432 0.185171 -10.440778 0.745083 9.958270 -7.313768 -0.617639 -11.156145 1.271396 0.128354 0.000000 0.000000 0.000000 0.000000 0.000000 0.000000 5.538300 -5.437253 0.023008 33.983275 13.306916 -9.769549 69.587890 27.131562 -47.345353 -10.248994 -14.399524 -4.618618 0.000000 0.000000 0.000000 0.000000 0.000000 0.000000 -1.049207 8.410176 62.863450 -1.974253 -5.536774 1.733545 0.391208 2.509507 -10.379260 0.000000 0.000000 0.000000 0.123427 9.980939 63.306636 -1.598751 -0.427798 0.416288 5.426535 -7.945705 -14.057677 0.000000 0.000000 0.000000
-90.278188 78.991566 311.119122 -3.676515 -4.706125 -63.396433 -0.016515 -0.320398 63.156933 -0.079239 0.005721 -0.115297 -11.676668 16.907310 -2.053842 0.000000 0.000000 0.000000 6.353886 8.197478 -1.534702 0.156666 -9.957880 0.702309 10.709884 -7.490624 -0.732152 -16.022211 -4.011856 0.748476 0.000000 0.000000 0.000000 0.000000 0.000000 0.000000 5.656308 -5.211336 0.043417 35.531581 13.011845 -10.140889 66.807996 22.313565 -42.692720 -17.783831 -10.073777 -9.025958 0.000000 0.000000 0.000000 0.000000 0.000000 0.000000 -1.253411 8.485400 62.897826 -2.240546 -5.923741 1.773467 2.413042 4.182527 -11.000976 0.000000 0.000000 0.000000 0.282125 9.709759 63.375257 -1.472699 0.031043 0.371160 13.450976 -2.081446 -21.235848 0.000000 0.000000 0.000000
-90.102733 78.970093 311.150490 -3.601340 -4.774232 -63.377258 -0.050153 -0.396115 63.142287 -0.100198 0.008760 -0.115346 -12.020538 17.167637 -2.015517 0.000000 0.000000 0.000000 6.183380 8.154074 -1.445723 0.136978 -9.397851 0.669048 12.012966 -7.495282 -0.949531 -20.690085 -9.720002 0.819093 0.000000 0.000000 0.000000 0.000000 0.000000 0.000000 5.820846 -5.243646 0.060008 37.548388 13.065140 -10.837953 56.349236 19.429562 -35.175405 -18.600903 0.148876 -14.276775 0.000000 0.000000 0.000000 0.000000 0.000000 0.000000 -1.025525 8.357367 62.946144 -2.402623 -5.829754 1.708821 0.698241 2.822455 -10.516032 0.000000 0.000000 0.000000 0.171240 9.548365 63.363324 -1.382926 0.158771 0.358307 17.738544 -0.005441 -25.224634 0.000000 0.000000 0.000000
